<?xml version="1.0" encoding="UTF-8" standalone="no"?>
<!-- Created with Inkscape (http://www.inkscape.org/) -->

<svg
   width="1189mm"
   height="841mm"
   viewBox="0 0 1189 841"
   version="1.1"
   id="svg1"
   xml:space="preserve"
   inkscape:version="1.3.2 (091e20e, 2023-11-25, custom)"
   sodipodi:docname="tod_plushie_V2.svg"
   xmlns:inkscape="http://www.inkscape.org/namespaces/inkscape"
   xmlns:sodipodi="http://sodipodi.sourceforge.net/DTD/sodipodi-0.dtd"
   xmlns="http://www.w3.org/2000/svg"
   xmlns:svg="http://www.w3.org/2000/svg"><sodipodi:namedview
     id="namedview1"
     pagecolor="#ffffff"
     bordercolor="#000000"
     borderopacity="0.25"
     inkscape:showpageshadow="2"
     inkscape:pageopacity="0.0"
     inkscape:pagecheckerboard="0"
     inkscape:deskcolor="#d1d1d1"
     inkscape:document-units="mm"
     inkscape:zoom="0.11313709"
     inkscape:cx="1440.7301"
     inkscape:cy="1277.2116"
     inkscape:window-width="958"
     inkscape:window-height="1043"
     inkscape:window-x="-7"
     inkscape:window-y="0"
     inkscape:window-maximized="0"
     inkscape:current-layer="svg1"
     showgrid="false" /><defs
     id="defs1" /><g
     id="g2"
     inkscape:groupmode="layer"
     inkscape:label="2"
     transform="matrix(0.26458333,0,0,0.26458334,-470.91858,-417.90035)" /><g
     id="g3"
     inkscape:groupmode="layer"
     inkscape:label="3"
     transform="matrix(0.26458333,0,0,0.26458334,-470.91858,-417.90035)"><g
       id="g18"
       transform="translate(986.53985,1389.7257)"
       style="stroke:#dc8add"><path
         style="fill:none;stroke:#dc8add;stroke-width:6.67087"
         d="m 2438.8728,478.40193 c 8.4116,-23.08279 24.3428,-43.44932 29.831,-67.39611 4.8568,-21.19185 2.4801,-43.44681 2.2097,-65.18641 -0.4679,-37.62707 -6.6291,-112.69514 -6.6291,-112.69514 l 235.334,2.20971 c 0,0 5.984,73.64975 8.8388,110.48543 1.1415,14.7286 -0.8021,30.0066 3.3146,44.19417 6.9788,24.05132 24.6819,43.63626 35.3553,66.29127 11.5428,24.50044 24.8537,48.73855 30.936,75.13009 11.9693,51.93592 13.6897,106.41318 9.9721,159.58069 -2.3084,33.01435 -11.2225,65.33449 -19.9219,97.26562 -7.923,29.08151 -27.6207,55.45205 -29.2969,85.54688 -1.6689,29.9651 9.4761,59.61367 19.5313,87.89062 7.6675,21.56222 30.7639,61.37635 30.7639,61.37635 l -355.7631,7.1816 c 0,0 16.3104,-30.77596 22.6495,-46.95633 8.7116,-22.23617 18.8209,-44.7181 20.9922,-68.50097 1.6011,-17.53747 -1.8487,-35.38524 -6.0767,-52.48058 -9.0556,-36.61545 -31.0061,-69.11015 -40.8796,-105.51359 -9.3747,-34.56445 -14.0123,-70.38836 -17.1252,-106.06602 -2.2891,-26.23527 -4.6261,-52.89862 -1.1049,-78.99709 4.3323,-32.1108 15.9752,-62.9168 27.069,-93.36019 z"
         id="path18"
         sodipodi:nodetypes="sssccssssssssccsssssss" /></g><g
       id="g23"
       transform="matrix(0.97614671,-0.19852401,0.21711196,0.89257432,530.68563,2391.6996)"
       style="stroke:#dc8add;stroke-width:1.04577"><path
         style="fill:none;stroke:#dc8add;stroke-width:6.97618"
         d="m 3340.9771,270.45826 c 0,0 179.2904,30.30997 267.1081,53.37519 64.0694,16.82774 188.8586,61.84599 188.8586,61.84599 0,0 45.2769,-107.76419 26.9411,-205.00216 -14.416,-76.45071 -74.1204,-143.411452 -185.5961,-166.611775 -76.7723,-15.9778445 -172.3295,11.900587 -214.6436,59.684396 -66.8267,75.465169 -82.6681,196.708359 -82.6681,196.708359 z"
         id="path23-3"
         sodipodi:nodetypes="cscsssc" /><ellipse
         style="fill:none;stroke:#1a5fb4;stroke-width:6.97618"
         id="path21-0"
         cx="3607.5442"
         cy="136.52058"
         rx="64.017319"
         ry="58.935131" /></g></g><g
     id="g12"
     inkscape:groupmode="layer"
     inkscape:label="12"
     transform="matrix(0.26458333,0,0,0.26458334,-470.91858,-417.90035)" /><rect
     style="opacity:1;fill:#1a5fb4;fill-opacity:0.416667;stroke:#1a5fb4;stroke-width:8;stroke-dasharray:none"
     id="rect4"
     width="279.39999"
     height="495.29999"
     x="1297.7146"
     y="-713.79724" /><rect
     style="fill:#26a269;fill-opacity:0.416667;stroke:#26a269;stroke-width:8;stroke-dasharray:none"
     id="rect4-4"
     width="599.44"
     height="307.34"
     x="1417.6346"
     y="-625.40436" /><g
     id="g5"
     transform="translate(478.24541,804.48127)"><g
       id="g22"><g
         id="g20"
         transform="matrix(0.26458333,0,0,0.26458333,-1038.6674,-450.16486)"
         style="stroke:#dc8add"><path
           style="fill:none;stroke:#dc8add;stroke-width:6.67087"
           d="m 2831.0039,319.53125 c 0,0 -9.1056,98.37958 -2.3437,146.875 4.3575,31.2511 14.2732,61.906 27.3437,90.625 8.919,19.59714 34.375,54.6875 34.375,54.6875 0,0 102.2993,-43.05382 150,-71.09375 25.1061,-14.75814 49.5263,-31.2119 71.0938,-50.78125 12.0286,-10.91419 32.0312,-36.71875 32.0312,-36.71875 0,0 -9.9126,-33.78427 -7.8125,-50.78125 1.975,-15.98433 11.4805,-30.15926 18.75,-44.53125 8.4866,-16.7782 18.8706,-32.53736 28.9063,-48.4375 5.0116,-7.94015 15.625,-23.4375 15.625,-23.4375 0,0 -71.0039,-57.50034 -111.7188,-77.34375 -29.1726,-14.21801 -61.9059,-19.5097 -92.9687,-28.90625 -8.8339,-2.67225 -26.5625,-7.8125 -26.5625,-7.8125 0,0 -59.3875,45.76316 -84.375,73.4375 -20.288,22.46945 -52.3438,74.21875 -52.3438,74.21875 z"
           id="path19"
           sodipodi:nodetypes="csscsscssscsscsc" /></g><text
         xml:space="preserve"
         style="font-style:normal;font-variant:normal;font-weight:normal;font-stretch:normal;font-size:16.9333px;font-family:'Berlin Sans FB';-inkscape-font-specification:'Berlin Sans FB';opacity:1;fill:#144888;fill-opacity:1;stroke:none;stroke-width:0.2;stroke-dasharray:none;stroke-opacity:1"
         x="-257.55533"
         y="-346.43881"
         id="text5"><tspan
           sodipodi:role="line"
           id="tspan5"
           style="fill:#144888;fill-opacity:1;stroke:none;stroke-width:0.2;stroke-dasharray:none;stroke-opacity:1"
           x="-257.55533"
           y="-346.43881">4x</tspan></text></g></g><g
     id="g6"
     transform="translate(618.56191,630.25495)"><ellipse
       style="fill:none;stroke:#dc8add;stroke-width:6.67087"
       id="path21"
       cx="1216.3514"
       cy="209.92239"
       rx="119.87669"
       ry="108.27573"
       transform="matrix(0.26458333,0,0,0.26458333,-470.91859,-417.90035)" /><text
       xml:space="preserve"
       style="font-style:normal;font-variant:normal;font-weight:normal;font-stretch:normal;font-size:16.9333px;font-family:'Berlin Sans FB';-inkscape-font-specification:'Berlin Sans FB';fill:#144888;fill-opacity:1;stroke:none;stroke-width:0.2;stroke-dasharray:none;stroke-opacity:1"
       x="-158.61748"
       y="-356.69153"
       id="text5-7"><tspan
         sodipodi:role="line"
         id="tspan5-4"
         style="fill:#144888;fill-opacity:1;stroke:none;stroke-width:0.2;stroke-dasharray:none;stroke-opacity:1"
         x="-158.61748"
         y="-356.69153">4x</tspan></text></g><g
     id="g7"
     transform="rotate(-38.359993,834.75404,-996.32756)"><path
       style="fill:none;stroke:#dc8add;stroke-width:1.765"
       d="m 33.598757,-222.10574 96.548913,79.19041 c 0,0 46.23341,-56.68537 -7.24667,-99.40012 -41.814679,-33.39754 -89.302243,20.20971 -89.302243,20.20971 z"
       id="path23"
       sodipodi:nodetypes="ccsc" /></g><text
     xml:space="preserve"
     style="font-style:normal;font-variant:normal;font-weight:normal;font-stretch:normal;font-size:16.9333px;font-family:'Berlin Sans FB';-inkscape-font-specification:'Berlin Sans FB';opacity:1;fill:#144888;fill-opacity:1;stroke:none;stroke-width:0.2;stroke-dasharray:none;stroke-opacity:1"
     x="-47.542316"
     y="-333.20963"
     id="text7"><tspan
       sodipodi:role="line"
       id="tspan7"
       style="stroke-width:0.2"
       x="-47.542316"
       y="-333.20963" /></text><g
     id="g19"
     transform="translate(506.01562,1197.2396)"><g
       id="g13"
       transform="translate(-2242.7002,-829.19426)"
       inkscape:label="stomach"><path
         style="fill:none;stroke:#dc8add;stroke-width:1.765"
         d="m 1756.1219,-101.24793 -1.754,62.310108 c 0,0 42.3147,15.587821 62.5578,25.432345 2.1195,1.03073 4.5766,1.74328 6.1388,3.5079097 3.5029,3.956617 4.5595,9.57345367 6.1389,14.6163003 2.3818,7.605163 4.3806,15.43843 4.9695,23.386067 0.9379,12.656721 -0.4695,25.449335 -2.3386,38.002356 -1.6081,10.800094 -4.4526,21.407968 -7.6005,31.863522 -1.2264,4.073492 -3.6754,7.790852 -4.3849,11.985362 -1.0401,6.14972 -0.4693,12.51852 0.2924,18.70889 1.0997,8.93795 6.1388,26.30936 6.1388,26.30936 l 82.7283,-16.37027 c 0,0 -3.8139,-10.39156 -4.9696,-15.78562 -1.3976,-6.52372 -2.0556,-13.21243 -2.3386,-19.87818 -0.5128,-12.078205 0.1847,-24.19948 1.1693,-36.248404 1.2167,-14.889211 3.5459,-29.672911 5.8466,-44.433533 1.8603,-11.935553 6.4311,-35.66376 6.4311,-35.66376 l 56.419,-4.969537 c 0,0 11.1166,17.61003037 17.2472,26.0170038 2.941,4.0330192 5.653,8.3442872 9.3544,11.6930332 7.5761,6.854238 16.5465,12.175025 25.7247,16.662571 8.5269,4.169067 18.745,4.488027 26.894,9.354434 4.0857,2.43986 7.7932,5.749407 10.5238,9.646744 3.2085,4.579521 4.7002,10.176278 6.4311,15.493272 2.451,7.528506 4.3609,15.266774 5.5542,23.093747 0.6624,4.344417 -0.2012,8.894359 0.877,13.154669 1.5512,6.12924 5.045,11.60242 7.8928,17.24724 2.3574,4.67286 7.6005,13.73934 7.6005,13.73934 l 68.1119,-45.895199 c 0,0 -5.9557,-27.949642 -11.693,-40.925626 -5.8392,-13.20652 -13.9985,-25.386745 -22.8014,-36.833059 -9.1518,-11.9000229 -30.9242,-32.74122 -30.9242,-32.74122 0,0 20.0007,-11.536211 28.4692,-19.250928 8.6506,-7.880597 15.6449,-17.490445 22.283,-27.127439 6.4651,-9.385664 16.9501,-30.751442 16.9501,-30.751442"
         id="path1"
         sodipodi:nodetypes="ccssssssssccssssccsssssssssccsscssc" /><path
         style="fill:none;stroke:#dc8add;stroke-width:1.765"
         d="m 1756.1219,-90.190326 -1.754,-62.310234 c 0,0 42.3147,-15.58784 62.5578,-25.43237 2.1195,-1.03073 4.5766,-1.74328 6.1388,-3.50791 3.5029,-3.95662 4.5595,-9.57345 6.1389,-14.6163 2.3818,-7.60518 4.3806,-15.43845 4.9695,-23.38608 0.9379,-12.65673 -0.4695,-25.44935 -2.3386,-38.00239 -1.6081,-10.8001 -4.4526,-21.40798 -7.6005,-31.86354 -1.2264,-4.07348 -3.6754,-7.79084 -4.3849,-11.98537 -1.0401,-6.1497 -0.4693,-12.5185 0.2924,-18.70886 1.0997,-8.93795 6.1388,-26.30935 6.1388,-26.30935 l 82.7283,16.37026 c 0,0 -3.8139,10.39155 -4.9696,15.78561 -1.3976,6.52371 -2.0556,13.21242 -2.3386,19.87817 -0.5128,12.07821 0.1847,24.19949 1.1693,36.24843 1.2167,14.88921 3.5459,29.67292 5.8466,44.43355 1.8603,11.93556 6.4311,35.66378 6.4311,35.66378 l 56.419,4.96955 c 0,0 11.1166,-17.61005 17.2472,-26.01702 2.941,-4.03303 5.653,-8.34429 9.3544,-11.69304 7.5761,-6.85424 16.5465,-12.17504 25.7247,-16.66259 8.5269,-4.16906 18.745,-4.48803 26.894,-9.35443 4.0857,-2.43986 7.7932,-5.74942 10.5238,-9.64676 3.2085,-4.57952 4.7002,-10.17628 6.4311,-15.49328 2.451,-7.5285 4.3609,-15.26678 5.5542,-23.09376 0.6624,-4.34442 -0.2012,-8.89436 0.877,-13.15467 1.5512,-6.12924 5.045,-11.60242 7.8928,-17.24724 2.3574,-4.67285 7.6005,-13.73932 7.6005,-13.73932 l 68.1119,45.89519 c 0,0 -5.9557,27.94965 -11.693,40.92564 -5.8392,13.20654 -13.9985,25.38676 -22.8014,36.83308 -9.1518,11.90003 -30.9242,32.74124 -30.9242,32.74124 0,0 20.0007,11.53623 28.4692,19.25094 8.6506,7.88061 15.6449,17.49047 22.283,27.12748 6.4651,9.38572 16.9501,30.751537 16.9501,30.751537"
         id="path4"
         sodipodi:nodetypes="ccssssssssccssssccsssssssssccsscssc" /></g><text
       xml:space="preserve"
       style="font-style:normal;font-variant:normal;font-weight:normal;font-stretch:normal;font-size:17.9021px;font-family:'Berlin Sans FB';-inkscape-font-specification:'Berlin Sans FB';opacity:1;fill:#144888;fill-opacity:1;stroke:none;stroke-width:0.2;stroke-dasharray:none;stroke-opacity:1"
       x="-388.45633"
       y="-884.38013"
       id="text10"
       transform="scale(1.0572136,0.94588269)"><tspan
         sodipodi:role="line"
         id="tspan10"
         style="stroke-width:0.2"
         x="-388.45633"
         y="-884.38013">dart here</tspan></text><text
       xml:space="preserve"
       style="font-style:normal;font-variant:normal;font-weight:normal;font-stretch:normal;font-size:19.4423px;font-family:'Berlin Sans FB';-inkscape-font-specification:'Berlin Sans FB';fill:#144888;fill-opacity:1;stroke:none;stroke-width:0.199999;stroke-dasharray:none;stroke-opacity:1"
       x="-167.94064"
       y="-1344.5416"
       id="text10-7"
       transform="scale(1.5868156,0.63019297)"><tspan
         sodipodi:role="line"
         id="tspan10-1"
         style="stroke-width:0.199999"
         x="-167.94064"
         y="-1344.5416">dart here</tspan></text><text
       xml:space="preserve"
       style="font-style:normal;font-variant:normal;font-weight:normal;font-stretch:normal;font-size:17.9021px;font-family:'Berlin Sans FB';-inkscape-font-specification:'Berlin Sans FB';opacity:1;fill:#144888;fill-opacity:1;stroke:none;stroke-width:0.2;stroke-dasharray:none;stroke-opacity:1"
       x="-388.45645"
       y="-1056.6886"
       id="text13"
       transform="scale(1.0572136,0.94588265)"><tspan
         sodipodi:role="line"
         id="tspan13"
         style="stroke-width:0.2"
         x="-388.45645"
         y="-1056.6886">dart here</tspan></text><text
       xml:space="preserve"
       style="font-style:normal;font-variant:normal;font-weight:normal;font-stretch:normal;font-size:19.4423px;font-family:'Berlin Sans FB';-inkscape-font-specification:'Berlin Sans FB';fill:#144888;fill-opacity:1;stroke:none;stroke-width:0.199999;stroke-dasharray:none;stroke-opacity:1"
       x="-171.27542"
       y="-1571.2568"
       id="text14"
       transform="scale(1.5868156,0.63019295)"><tspan
         sodipodi:role="line"
         id="tspan14"
         style="stroke-width:0.199999"
         x="-171.27542"
         y="-1571.2568">dart here</tspan></text></g><g
     id="g16"
     transform="translate(1386.7947,1323.6523)"><g
       id="g17"
       transform="matrix(0.26458333,0,0,0.26458333,-1656.8618,-257.35321)"
       inkscape:label="body"><path
         style="display:inline;fill:none;stroke:#dc8add;stroke-width:6.67087;stroke-dasharray:none"
         d="m 3455.0497,-2906.236 c 0,0 16.4558,3.0525 27.6342,3.5074 11.1784,0.4549 25.1898,-0.7367 37.2603,-1.359 12.0705,-0.6223 22.8339,-0.1976 35.1563,-2.3437 12.3224,-2.1461 25.3486,-8.3312 38.2812,-10.9375 12.9326,-2.6063 24.7019,-4.0688 39.0625,-4.6875 14.3606,-0.6187 37.4215,0.5828 46.875,1.5625 l 18.3254,3.1259 c 3.9388,9.8722 14.4743,22.1018 25.0689,36.4602 10.5946,14.3584 25.1328,34.3444 36.4602,49.7184 11.3274,15.374 16.7998,28.258 31.4884,42.5369 14.6886,14.2789 26.4052,23.4321 57.4071,40.0336 31.0019,16.6015 101.5671,38.1142 131.25,51.5625 29.6829,13.4484 34.0362,12.3056 48.4375,25 14.4013,12.6945 24.466,25.1806 34.375,50 9.909,24.8195 7.7162,63.1706 15.625,98.4375 7.9088,35.267 19.0635,84.8436 32.8125,112.5 13.749,27.6565 40.625,54.6875 40.625,54.6875 l 243.75,-160.9375 c 0,0 -41.1706,-113.9598 -53.125,-150 -11.9544,-36.0402 -7.4359,-40.1038 -20.3125,-65.625 -12.8766,-25.5212 -32.4849,-51.8497 -60.9375,-82.8125 -28.4526,-30.9628 -85.52,-69.4478 -112.5,-98.4375 -26.98,-28.9897 -41.9646,-48.233 -53.125,-70.3125 -11.1604,-22.0795 -18.0776,-35.4942 -17.1875,-57.8125 0.8901,-22.3183 15.0963,-45.6509 26.5625,-68.75 11.4662,-23.0991 33.4876,-46.2075 42.5463,-68.9585 9.0587,-22.751 19.7856,-43.2399 13.4177,-64.5207 -6.3679,-21.2808 -19.489,-21.8965 -47.6976,-47.5889 -28.2086,-25.6924 -75.8776,-73.4477 -124.2637,-103.2384 -48.3861,-29.7907 -97.2835,-54.4697 -164.4734,-71.5846 -67.1899,-17.1149 -162.433,-18.9167 -235.7136,-20.8752 -73.2806,-1.9585 -138.0081,5.3037 -203.081,7.0889 -65.0729,1.7852 -139.3112,0.5116 -187.3424,3.7401 -48.0312,3.2285 -82.0596,8.262 -100.7958,11.5684 -5.6503,0.7673 -12.3475,2.9573 -12.3475,2.9573 0,0 -4.7088,80.9679 -7.8693,124.9033 -3.1605,43.9354 -5.374,96.4582 -11.2171,138.6897 -5.8431,42.2315 -14.0161,79.513 -22.5211,114.4658 -8.505,34.9528 -22.512,72.8824 -27.704,95.2278 -5.192,22.3454 -6.6406,37.8906 -6.6406,37.8906 0,0 50.357,53.1637 66.7969,72.6563 16.4399,19.4926 23.4968,28.1283 33.2031,42.9687 9.7063,14.8404 18.4528,31.5588 25,45.7031 6.5472,14.1443 10.0666,24.9357 14.8437,38.6719 4.7771,13.7362 10.3017,30.5589 13.6719,43.75 3.3702,13.1911 4.673,20.9691 7.0313,35.1563 2.3583,14.1873 6.1916,34.5495 6.6406,50 0.449,15.4505 -1.164,29.1399 -3.125,42.1875 -1.961,13.0476 -4.0322,20.0105 -8.2031,35.9375 -4.1709,15.927 -13.4225,42.8531 -17.5782,59.375 -4.1557,16.5219 -6.5804,28.608 -8.2031,39.4531 -1.6227,10.8452 -2.3172,12.9715 -2.3437,25.3907 -0.026,12.4192 2.0103,35.2122 4.2968,48.8281 2.2865,13.6159 1.651,10.0222 8.2032,32.8125 6.5522,22.7903 33.5937,103.125 33.5937,103.125 0,0 15.0872,-4.0958 53.125,-14.8438 38.0378,-10.7479 134.2895,-39.0986 175,-50 40.7105,-10.9013 68.75,-17.1875 68.75,-17.1875 0,0 -10.4767,-30.1722 -14.0625,-43.75 -3.5858,-13.5777 -4.2185,-17.4773 -7.8125,-37.5 -3.594,-20.0226 -10.5689,-48.3203 -12.5,-82.8125 -1.9311,-34.4921 4.5624,-86.1751 4.6875,-123.4375 0.1251,-37.2623 -2.7264,-60.1486 -3.125,-100 -0.3986,-39.8514 0.5311,-105.5352 1.5625,-139.0625 1.0314,-33.5273 4.7438,-47.2029 3.125,-62.1094 z"
         id="path14"
         sodipodi:nodetypes="czczzzzzcczzzzzzzzzcczzzzzzzzzzzzzzzcczzzzczzzzzzzzzzzzzzczzczzzzcc" /></g><text
       xml:space="preserve"
       style="font-style:normal;font-variant:normal;font-weight:normal;font-stretch:normal;font-size:16.9333px;font-family:'Berlin Sans FB';-inkscape-font-specification:'Berlin Sans FB';opacity:1;fill:#144888;fill-opacity:1;stroke:none;stroke-width:0.2;stroke-dasharray:none;stroke-opacity:1"
       x="-938.27032"
       y="875.20251"
       id="text11"
       transform="rotate(101.64237)"><tspan
         sodipodi:role="line"
         id="tspan11"
         style="stroke-width:0.2"
         x="-938.27032"
         y="875.20251">dart here</tspan></text><text
       xml:space="preserve"
       style="font-style:normal;font-variant:normal;font-weight:normal;font-stretch:normal;font-size:10.4443px;font-family:'Berlin Sans FB';-inkscape-font-specification:'Berlin Sans FB';opacity:1;fill:#144888;fill-opacity:1;stroke:none;stroke-width:0.2;stroke-dasharray:none;stroke-opacity:1"
       x="-1488.0991"
       y="107.89684"
       id="text12"
       transform="matrix(0.44211369,0.75237841,-0.98797252,0.58055384,0,0)"><tspan
         sodipodi:role="line"
         id="tspan12"
         style="stroke-width:0.2"
         x="-1488.0991"
         y="107.89684">dart here</tspan></text><text
       xml:space="preserve"
       style="font-style:normal;font-variant:normal;font-weight:normal;font-stretch:normal;font-size:16.9333px;font-family:'Berlin Sans FB';-inkscape-font-specification:'Berlin Sans FB';opacity:1;fill:#144888;fill-opacity:1;stroke:none;stroke-width:0.2;stroke-dasharray:none;stroke-opacity:1"
       x="-733.99011"
       y="-1103.9939"
       id="text15"><tspan
         sodipodi:role="line"
         id="tspan15"
         style="stroke-width:0.2"
         x="-733.99011"
         y="-1103.9939">2x</tspan></text></g><g
     id="g21"><path
       style="fill:none;stroke:#dc8add;stroke-width:1.765"
       d="m -846.83636,-1232.2021 v 22.1176 l 170.94566,0.6201 c 0,0 -0.71568,-22.6332 -2.89388,-33.6931 -2.27396,-11.5461 -5.84383,-22.9036 -10.54201,-33.693 -4.16289,-9.5601 -8.17011,-19.752 -15.49239,-27.1756 -8.83225,-8.9544 -20.48468,-15.4824 -32.5198,-19.1357 -8.80577,-2.673 -18.35968,-1.5109 -27.56189,-1.5879 -8.92984,-0.075 -17.97076,-0.441 -26.76816,1.0931 -8.53283,1.488 -16.71648,4.6519 -24.78958,7.7901 -7.17133,2.7876 -20.01573,9.8728 -20.91299,9.7692 -0.89725,-0.1035 -2.23025,1.9616 -2.23025,1.9616 0,0 8.63006,11.2551 12.19563,17.3633 4.03961,6.9204 8.73709,13.852 10.33528,21.7041 0.96285,4.7306 0.87747,9.88 -0.6201,14.4694 -1.23305,3.7788 -3.50217,7.4496 -6.61459,9.9219 -6.28301,4.9909 -22.53093,8.4749 -22.53093,8.4749 z"
       id="path24"
       sodipodi:nodetypes="cccsssssssscssssc" /><text
       xml:space="preserve"
       style="font-style:normal;font-variant:normal;font-weight:normal;font-stretch:normal;font-size:16.9333px;font-family:'Berlin Sans FB';-inkscape-font-specification:'Berlin Sans FB';opacity:1;fill:#144888;fill-opacity:1;stroke:none;stroke-width:0.2;stroke-dasharray:none;stroke-opacity:1"
       x="-765.74023"
       y="-1257.451"
       id="text16"><tspan
         sodipodi:role="line"
         id="tspan16"
         style="stroke-width:0.2"
         x="-765.74023"
         y="-1257.451">2x</tspan></text></g><path
     style="fill:none;stroke:#1a5fb4;stroke-width:1.765"
     d="M 860.56515,93.267904 889.91737,118.486 c 0,0 32.39748,-14.94901 49.81608,-17.36328 13.6744,-1.895316 27.804,-9.629266 41.3411,-12.336196 24.70275,-4.93963 57.02325,-27.74816 10.1286,-41.82071 -8.8329,-2.65065 -18.2718,-3.29305 -27.4919,-3.10059 -11.2237,0.23428 -22.4792,2.10534 -33.2796,5.16765 -8.1994,2.32487 -15.9663,6.06116 -23.5644,9.92188 -8.10116,4.11633 -16.02866,8.68412 -23.35777,14.05599 -8.22876,6.03125 -22.94433,20.25716 -22.94433,20.25716 z"
     id="path22"
     sodipodi:nodetypes="ccsssssssc" /><text
     xml:space="preserve"
     style="font-style:normal;font-variant:normal;font-weight:normal;font-stretch:normal;font-size:16.9333px;font-family:'Berlin Sans FB';-inkscape-font-specification:'Berlin Sans FB';fill:#1a5fb4;stroke:#f8e45c;stroke-width:0;stroke-dasharray:none"
     x="881.58441"
     y="32.942837"
     id="text3"><tspan
       sodipodi:role="line"
       id="tspan3"
       x="881.58441"
       y="32.942837"
       style="stroke-width:0">half inch seam allowance</tspan></text><text
     xml:space="preserve"
     style="font-style:normal;font-variant:normal;font-weight:normal;font-stretch:normal;font-size:16.9333px;font-family:'Berlin Sans FB';-inkscape-font-specification:'Berlin Sans FB';fill:#144888;fill-opacity:1;stroke:none;stroke-width:0.2;stroke-dasharray:none;stroke-opacity:1"
     x="909.74786"
     y="83.414185"
     id="text8"><tspan
       sodipodi:role="line"
       id="tspan8"
       x="909.74786"
       y="83.414185"
       style="stroke-width:0.2">2x</tspan></text><rect
     style="fill:none;stroke:#1a5fb4;stroke-width:1.765"
     id="rect1"
     width="25.4"
     height="25.4"
     x="820.14093"
     y="37.365078" /><text
     xml:space="preserve"
     style="font-size:8.32652px;fill:#1a5fb4;stroke:#f8e45c;stroke-width:0;stroke-dasharray:none"
     x="766.82935"
     y="26.908848"
     id="text1"
     transform="scale(1.0612494,0.94228557)"><tspan
       sodipodi:role="line"
       x="766.82935"
       y="26.908848"
       style="fill:#1a5fb4;stroke-width:0;stroke-dasharray:none"
       id="tspan2">1x1 inch</tspan><tspan
       sodipodi:role="line"
       x="766.82935"
       y="37.316998"
       style="fill:#1a5fb4;stroke-width:0;stroke-dasharray:none"
       id="tspan4"> square</tspan></text></svg>
